<?xml version="1.0" encoding="iso-8859-1"?>
<!-- Generator: Adobe Illustrator 19.0.0, SVG Export Plug-In . SVG Version: 6.00 Build 0)  -->
<svg version="1.1" id="Layer_1" xmlns="http://www.w3.org/2000/svg" xmlns:xlink="http://www.w3.org/1999/xlink" x="0px" y="0px"
	 viewBox="0 0 512 512" style="enable-background:new 0 0 512 512;" xml:space="preserve">
<circle cx="256" cy="256" r="256"/>
<path style="fill:#DB2B42;" d="M407.112,145.408H149.88c-12.864,0-23.384,10.52-23.384,23.384v163.696
	c0,12.864,10.52,23.384,23.384,23.384h122.768l87.696,70.152v-70.152h46.768c12.864,0,23.384-10.52,23.384-23.384V168.792
	C430.496,155.928,419.968,145.408,407.112,145.408L407.112,145.408z"/>
<path style="fill:#FFFFFF;" d="M216.064,287.84l-91.856-97.328c-21.568-22.704-21.568-57.904,0-79.984
	c10.008-10.216,24.152-15.896,39.84-15.896c14.656,0,28.176,4.952,37.984,14.04l13.728,12.696l13.936-12.384
	c10.736-9.496,23.944-14.552,38.184-14.552c15.168,0,29.312,5.776,39.632,15.896c21.672,22.192,21.776,57.488,0.104,80.296
	L216.064,287.84z"/>
<g>
</g>
<g>
</g>
<g>
</g>
<g>
</g>
<g>
</g>
<g>
</g>
<g>
</g>
<g>
</g>
<g>
</g>
<g>
</g>
<g>
</g>
<g>
</g>
<g>
</g>
<g>
</g>
<g>
</g>
</svg>
